<?xml version="1.0" standalone="no"?>
<!DOCTYPE svg PUBLIC "-//W3C//DTD SVG 20010904//EN"
 "http://www.w3.org/TR/2001/REC-SVG-20010904/DTD/svg10.dtd">
<svg version="1.0" xmlns="http://www.w3.org/2000/svg"
 width="300.000000pt" height="300.000000pt" viewBox="0 0 300.000000 300.000000"
 preserveAspectRatio="xMidYMid meet">

<g transform="translate(0.000000,300.000000) scale(0.100000,-0.100000)"
fill="#000000" stroke="none">
<path d="M1064 2855 c9 -39 56 -111 98 -152 33 -32 34 -32 73 -18 49 17 87 18
138 4 22 -6 40 -9 42 -7 2 2 -5 22 -15 46 -11 23 -16 42 -12 42 24 -1 82 -78
82 -108 0 -6 16 -33 35 -62 l35 -52 0 50 c0 59 -21 123 -55 168 -39 51 -140
96 -227 101 l-73 4 42 -20 c70 -33 85 -101 23 -101 -43 0 -66 13 -134 79 -56
53 -58 55 -52 26z m299 -25 c52 -19 113 -72 136 -117 21 -41 11 -37 -19 8 -34
52 -81 86 -153 110 -29 10 -44 18 -35 19 10 0 41 -9 71 -20z m-142 -95 c24 -8
35 -14 25 -14 -29 -1 -99 35 -127 66 -20 23 -18 22 17 -6 23 -18 61 -39 85
-46z"/>
<path d="M785 2831 c-17 -7 -14 -11 27 -29 26 -11 63 -32 81 -46 43 -33 57
-33 27 -1 -13 14 -21 25 -19 25 3 0 18 -14 35 -32 16 -17 23 -27 15 -23 -10 6
-12 4 -7 -4 5 -7 15 -10 23 -7 9 4 11 2 7 -6 -5 -8 -2 -9 10 -5 9 4 15 3 12
-2 -8 -12 29 -21 88 -21 l50 0 -52 28 c-29 15 -83 49 -121 76 -71 50 -131 66
-176 47z"/>
<path d="M852 2710 c28 -29 29 -32 15 -53 -11 -16 -24 -22 -49 -20 l-33 1 28
-24 c15 -13 37 -24 47 -24 22 0 160 61 160 71 0 3 -12 9 -27 12 -16 3 -48 19
-73 36 -25 17 -57 31 -72 31 l-26 0 30 -30z m91 -49 c-2 -3 -18 10 -36 29
l-32 34 36 -30 c20 -16 34 -31 32 -33z"/>
<path d="M1317 2656 c37 -32 27 -38 -32 -20 -81 25 -233 15 -312 -21 -60 -26
-98 -55 -75 -55 6 0 14 5 17 10 4 6 11 7 17 4 7 -4 6 -9 -2 -14 -7 -4 8 -12
35 -19 56 -14 134 -52 192 -93 l41 -30 31 33 c34 39 32 44 -44 81 l-40 19 65
-7 c36 -4 85 -6 110 -4 25 1 80 3 123 4 42 1 77 4 77 8 0 5 -16 26 -36 47 -43
48 -107 81 -158 81 l-37 0 28 -24z m-129 -23 c-15 -2 -42 -2 -60 0 -18 2 -6 4
27 4 33 0 48 -2 33 -4z m277 -35 c19 -22 19 -22 -10 2 -48 40 -51 43 -30 32
11 -6 29 -21 40 -34z m-392 25 c-7 -2 -19 -2 -25 0 -7 3 -2 5 12 5 14 0 19 -2
13 -5z m184 1 c-3 -3 -12 -4 -19 -1 -8 3 -5 6 6 6 11 1 17 -2 13 -5z m-267
-24 c-8 -5 -19 -10 -25 -10 -5 0 -3 5 5 10 8 5 20 10 25 10 6 0 3 -5 -5 -10z"/>
<path d="M1390 2531 c-94 -19 -169 -85 -194 -172 -21 -71 -20 -117 4 -162 11
-20 20 -44 20 -52 0 -55 82 1 125 85 53 103 122 164 201 176 59 8 69 16 53 42
-29 46 -186 54 -265 14 -79 -41 -110 -90 -124 -202 l-9 -65 4 71 c4 84 21 128
63 170 55 55 96 69 204 69 53 0 94 3 90 7 -7 6 -119 29 -131 27 -3 -1 -22 -4
-41 -8z"/>
<path d="M1060 2462 c46 -62 0 -108 -62 -62 l-30 22 7 -23 c15 -46 39 -71 96
-99 32 -16 60 -34 64 -40 14 -23 23 -7 28 53 4 34 8 71 9 81 3 20 -66 77 -111
91 l-23 7 22 -30z m76 -33 c3 -6 -5 -3 -20 6 -14 10 -26 19 -26 22 0 7 39 -17
46 -28z m-73 -76 c-7 -2 -19 -2 -25 0 -7 3 -2 5 12 5 14 0 19 -2 13 -5z"/>
<path d="M1515 2381 c-48 -22 -117 -96 -164 -175 -18 -32 -52 -71 -75 -87 -31
-23 -46 -44 -63 -90 l-23 -59 21 0 c35 0 139 61 172 101 l31 37 31 -23 c45
-35 157 -82 222 -94 56 -11 123 -15 123 -7 0 2 -27 64 -60 137 -38 86 -64 133
-72 130 -7 -2 -30 -6 -50 -9 -30 -3 -42 1 -65 24 l-28 29 58 9 c70 10 102 -6
125 -65 15 -39 23 -43 53 -31 14 6 6 23 -48 100 -64 91 -65 92 -106 92 -23 0
-60 -9 -82 -19z m92 -48 c-20 -2 -52 -2 -70 0 -17 2 0 4 38 4 39 0 53 -2 32
-4z m111 -214 c30 -66 51 -123 48 -126 -3 -3 -14 14 -25 38 -10 24 -31 71 -46
104 -39 87 -45 105 -37 105 4 0 31 -54 60 -121z"/>
<path d="M1391 2057 c-32 -39 -92 -77 -154 -98 -56 -19 -81 -47 -31 -35 55 14
132 54 172 90 l41 37 38 -25 c60 -40 180 -77 266 -83 103 -8 99 9 -5 24 -114
16 -174 36 -244 81 l-59 38 -24 -29z"/>
<path d="M1385 1914 c-116 -9 -328 -48 -430 -79 -139 -42 -249 -91 -242 -108
2 -6 13 -38 23 -70 l18 -58 -52 -45 c-83 -73 -109 -141 -77 -203 17 -34 70
-81 91 -81 18 0 18 -7 -2 -105 -14 -73 -19 -83 -51 -105 -49 -33 -83 -96 -83
-153 0 -38 6 -53 31 -82 17 -19 36 -35 43 -35 33 -1 37 -16 26 -83 -11 -61
-10 -69 9 -100 31 -50 111 -122 169 -151 50 -25 51 -26 41 -58 -10 -36 -13
-298 -3 -298 3 0 38 29 78 63 39 35 98 85 130 110 l60 46 78 -75 c83 -79 160
-133 245 -173 l52 -24 68 56 c37 30 78 66 91 80 l23 24 -33 22 -33 21 61 0
c48 0 65 4 79 20 17 18 16 19 -9 26 -41 10 -31 24 17 24 33 0 49 6 66 24 l23
25 -38 7 -39 8 55 8 c31 5 63 17 74 28 19 18 18 19 -30 34 l-49 15 61 0 c53 1
63 4 89 31 16 16 27 32 24 34 -2 2 -26 8 -54 14 l-50 10 67 1 c62 1 68 3 88
31 l21 30 -26 10 c-14 5 -35 10 -46 10 -31 0 -22 17 13 24 97 19 108 25 108
58 0 25 3 29 20 25 23 -6 57 43 114 161 28 59 33 79 25 99 -12 31 -12 33 4 33
7 0 24 30 37 67 31 88 32 178 3 254 -18 48 -20 58 -8 70 12 12 26 58 50 163
l6 28 -68 -7 c-59 -6 -71 -4 -85 12 -14 16 -15 26 -3 92 l12 73 -44 20 c-60
27 -210 64 -335 83 -101 15 -404 27 -503 19z m93 -80 c8 -14 10 -14 21 0 8 9
20 16 28 16 13 0 13 -2 2 -17 -11 -13 -11 -17 -1 -20 18 -7 15 -53 -3 -53 -8
0 -15 9 -15 20 0 11 -7 20 -15 20 -8 0 -15 -9 -15 -20 0 -11 -7 -20 -15 -20
-11 0 -15 12 -15 45 0 46 12 58 28 29z m250 10 c18 -5 22 -13 22 -45 0 -28 -4
-39 -15 -39 -8 0 -15 7 -15 15 0 8 -7 15 -15 15 -8 0 -15 -7 -15 -15 0 -8 -7
-15 -15 -15 -11 0 -15 11 -15 38 0 53 11 61 68 46z m-458 -42 c0 -38 9 -46 31
-26 19 17 39 12 39 -10 0 -13 -76 -29 -92 -20 -4 3 -8 23 -8 45 0 28 4 39 15
39 10 0 15 -10 15 -28z m659 22 c31 -7 44 -24 17 -24 -8 0 -17 -13 -21 -30 -4
-17 -13 -30 -22 -30 -12 0 -14 7 -9 35 6 28 4 35 -9 35 -8 0 -15 5 -15 10 0
12 15 13 59 4z m-806 -61 c4 -20 5 -39 3 -41 -3 -2 -22 -6 -44 -9 -35 -5 -40
-3 -45 18 -15 55 -7 65 54 68 23 1 27 -4 32 -36z m1014 16 c30 -10 30 -11 20
-50 -9 -38 -33 -50 -31 -16 2 21 -25 31 -32 12 -4 -8 -13 -15 -21 -15 -11 0
-13 7 -8 33 12 53 17 56 72 36z m-1239 -41 c-2 -6 4 -20 14 -30 10 -10 18 -22
18 -28 0 -15 -30 -12 -36 4 -8 22 -36 7 -29 -15 11 -34 -22 -21 -34 12 -6 18
-11 36 -11 40 0 14 28 10 32 -3 3 -8 9 -4 17 10 12 23 36 31 29 10z m892 -38
c94 -12 280 -54 311 -71 41 -21 9 -20 -103 5 -260 58 -598 60 -843 6 -41 -9
-55 -6 -39 9 12 12 148 39 249 50 117 12 328 13 425 1z m-761 -179 c-12 -61
-20 -114 -17 -116 9 -10 103 15 143 38 57 32 87 81 83 135 -4 48 -5 48 93 57
62 7 67 6 72 -14 9 -35 -12 -90 -50 -132 -39 -43 -144 -100 -220 -119 l-50
-13 63 -101 c76 -121 146 -190 212 -210 60 -18 35 -31 -41 -22 -113 14 -190
70 -273 199 -24 37 -48 67 -53 67 -5 0 -12 -24 -16 -52 -4 -29 -11 -59 -15
-67 -8 -14 -100 -54 -108 -46 -3 3 40 257 64 378 7 35 -9 35 -58 2 -21 -14
-43 -24 -49 -23 -7 2 -19 -9 -28 -24 -15 -25 -14 -29 1 -45 16 -16 17 -15 12
19 -4 19 -2 38 2 41 12 7 15 -80 3 -110 -8 -21 -14 -24 -37 -18 -41 10 -62 34
-62 72 0 44 53 97 143 141 66 33 199 82 205 77 2 -2 -7 -53 -19 -114z m941 52
c-1 -16 -7 -54 -14 -85 l-14 -56 40 14 c50 18 74 18 81 1 3 -8 -7 -67 -22
-133 -29 -126 -31 -128 -98 -149 -28 -8 -28 -5 -4 93 34 138 33 131 11 125
-21 -6 -23 -13 -56 -157 -17 -71 -21 -80 -49 -91 -79 -33 -76 -44 -33 137 21
90 41 193 45 229 5 57 9 68 32 82 14 9 38 17 54 17 23 0 27 -4 27 -27z m253
-17 c-2 -31 0 -31 82 -10 27 7 28 6 21 -27 -8 -44 -30 -59 -81 -59 l-42 0 -17
-76 c-9 -42 -14 -79 -11 -82 3 -3 23 -1 45 5 52 13 43 3 -47 -58 -54 -37 -81
-49 -97 -45 l-23 6 25 106 c18 78 21 108 13 113 -13 8 -6 37 16 62 7 9 12 27
11 40 -2 18 5 28 32 42 50 25 76 19 73 -17z m-1020 -39 c-20 -35 -110 -87
-150 -87 -38 0 -26 17 20 28 58 15 109 50 127 89 9 18 16 25 18 17 2 -8 -5
-29 -15 -47z m377 6 c0 -42 -13 -63 -36 -63 -12 0 -35 -5 -49 -10 -23 -9 -26
-8 -21 6 3 8 6 22 6 30 0 24 39 54 70 54 22 0 30 -5 30 -17z m-706 -110 c-7
-38 -23 -122 -36 -188 -19 -106 -37 -153 -46 -125 -5 15 60 354 71 368 20 26
23 10 11 -55z m942 52 c11 -27 -62 -297 -91 -342 -25 -37 -34 -44 -84 -54 -31
-6 -61 -13 -67 -14 -7 -2 -28 -73 -48 -158 -41 -169 -51 -187 -120 -206 -36
-10 -44 -8 -85 19 -24 17 -48 30 -51 30 -4 0 -1 26 6 58 8 31 14 73 14 93 0
42 9 51 70 72 39 13 47 13 61 1 15 -13 18 -10 28 30 15 62 15 63 -25 69 -40 7
-124 45 -124 56 0 8 45 31 60 31 6 0 10 -6 10 -14 0 -18 6 -22 51 -30 31 -6
37 -4 42 14 6 22 68 53 95 48 10 -2 18 -13 20 -26 3 -18 8 -22 25 -16 35 10
67 33 67 48 0 8 3 22 6 30 5 14 2 15 -21 6 -14 -5 -44 -7 -67 -4 -37 6 -39 9
-34 33 4 14 9 56 13 92 6 75 8 77 118 121 79 31 123 35 131 13z m-269 -51 c3
-8 -4 -62 -17 -118 l-22 -103 -49 -21 c-54 -22 -54 -22 -38 48 6 25 14 74 17
110 7 62 9 66 42 82 43 22 59 23 67 2z m-251 -20 c-5 -13 -2 -15 11 -9 10 4
35 13 55 18 58 17 63 5 43 -94 -24 -117 -27 -122 -79 -141 l-46 -17 6 27 c3
15 12 52 20 83 18 73 18 78 -5 72 -16 -4 -24 -23 -39 -87 l-18 -81 -33 50
c-26 42 -31 58 -29 98 3 48 3 48 58 72 30 12 57 23 59 24 2 0 0 -6 -3 -15z
m1032 -149 l-2 -50 -3 48 c-2 26 -8 45 -12 43 -4 -3 -4 -30 0 -61 9 -67 -4
-111 -34 -119 -12 -3 -31 -11 -41 -19 -19 -14 -19 -15 2 -45 12 -16 22 -40 22
-51 0 -30 -39 -103 -50 -96 -5 3 -7 0 -5 -7 3 -8 0 -22 -7 -31 -11 -15 -32
-18 -136 -20 -119 -2 -122 -2 -122 20 0 45 18 72 53 78 21 4 49 21 68 41 32
33 34 39 35 111 l2 76 88 59 c49 32 98 68 109 78 26 26 35 10 33 -55z m-1290
-48 c41 -63 100 -125 137 -145 11 -6 15 -12 9 -12 -26 0 -98 61 -144 122 -42
56 -62 98 -46 98 2 0 22 -28 44 -63z m18 -117 c36 -33 76 -63 89 -66 23 -6 25
-10 19 -43 -10 -60 -44 -120 -82 -146 -20 -14 -42 -25 -49 -25 -7 0 -13 -2
-13 -5 0 -15 84 -79 138 -106 59 -30 66 -32 150 -26 48 3 96 8 107 12 14 5 11
-1 -10 -19 -48 -42 -115 -59 -209 -54 -91 5 -123 18 -204 85 -54 43 -81 54
-83 31 0 -7 -4 -4 -9 7 -7 19 -8 18 -13 -5 -17 -71 -28 -142 -24 -146 5 -6 27
86 27 113 0 9 3 14 6 10 11 -10 -17 -147 -30 -147 -7 0 -25 14 -41 30 l-29 30
12 73 c7 39 22 122 34 183 l20 111 45 22 c25 12 48 20 50 17 3 -3 1 -27 -5
-53 l-11 -48 5 50 c8 73 -2 52 -21 -40 -8 -44 -18 -90 -20 -102 -3 -13 -2 -23
3 -23 5 0 14 26 20 58 l10 57 -5 -52 c-6 -61 6 -68 51 -32 27 21 66 87 66 111
0 8 -25 40 -56 73 l-56 59 -66 -34 c-37 -19 -71 -35 -77 -35 -46 -4 -78 -56
-51 -83 15 -15 16 -14 10 13 -4 24 -1 35 18 50 21 18 21 18 8 1 -9 -11 -15
-41 -15 -72 0 -29 -3 -55 -7 -59 -13 -13 -69 7 -84 31 -33 50 10 112 115 168
56 29 182 83 200 86 2 0 32 -27 67 -60z m1003 46 c14 -17 6 -96 -13 -120 -6
-8 -28 -18 -50 -22 l-39 -7 7 37 c7 35 6 37 -13 26 -12 -6 -24 -23 -27 -38
-16 -71 -43 -174 -46 -177 -2 -1 -22 -6 -45 -10 -50 -8 -49 -10 -27 82 9 37
19 92 23 122 l6 54 55 19 c35 12 56 15 58 8 2 -6 17 1 34 15 33 28 60 32 77
11z m-259 -100 c0 -14 -5 -47 -11 -74 l-12 -49 -59 -7 c-33 -3 -64 -8 -69 -12
-8 -4 -14 -54 -6 -54 1 0 27 7 57 15 73 20 72 20 54 -19 -15 -30 -25 -36 -90
-55 -40 -12 -79 -23 -86 -26 -7 -2 -21 2 -32 10 -18 14 -18 16 3 99 11 47 21
98 21 113 0 26 5 29 88 54 117 35 142 36 142 5z m-516 -36 c18 -17 -3 -37 -45
-43 -24 -3 -45 -4 -47 -2 -2 2 -1 18 3 35 7 30 9 32 43 25 21 -4 41 -10 46
-15z m-263 -82 c-11 -33 -38 -65 -71 -83 -8 -5 0 8 17 28 42 48 49 78 27 114
l-17 28 27 -26 c26 -25 27 -29 17 -61z m-217 -112 c-15 -85 -31 -153 -36 -150
-4 3 -8 15 -8 26 0 32 40 240 51 267 22 53 20 3 -7 -143z m460 115 c3 -5 -4
-55 -16 -110 -23 -108 -27 -112 -79 -85 -26 13 -29 19 -24 44 3 16 8 50 10 76
2 25 5 47 7 48 50 37 90 47 102 27z m769 -157 c-364 -56 -695 -204 -991 -443
-34 -28 -64 -51 -67 -51 -7 0 -6 71 1 107 4 23 21 40 67 70 267 175 741 326
1032 330 38 1 28 -2 -42 -13z m-1048 -94 c59 -51 78 -61 145 -77 l55 -13 -52
4 c-29 3 -67 12 -84 22 -43 22 -129 86 -129 96 0 17 20 7 65 -32z m905 11
c-52 -16 -113 -35 -135 -44 l-40 -16 113 0 c124 -1 143 -14 34 -24 -38 -4 -95
-15 -128 -25 l-59 -19 94 -7 c51 -5 105 -12 120 -15 22 -6 17 -9 -29 -15 -152
-19 -209 -29 -205 -36 3 -4 37 -11 76 -15 130 -13 132 -20 6 -34 -64 -8 -117
-17 -117 -21 0 -4 35 -13 78 -20 l77 -14 -88 -17 c-48 -10 -92 -19 -99 -21 -6
-2 17 -15 53 -28 l64 -25 -55 -7 c-75 -11 -80 -14 -42 -28 17 -7 32 -16 32
-20 0 -5 -21 -27 -47 -49 l-46 -41 -56 31 c-74 41 -144 95 -210 162 l-53 55
58 46 c113 90 415 221 597 261 104 23 107 15 7 -14z"/>
<path d="M1690 1820 c0 -5 7 -10 15 -10 8 0 15 5 15 10 0 6 -7 10 -15 10 -8 0
-15 -4 -15 -10z"/>
<path d="M1062 1758 c5 -32 28 -35 28 -4 0 17 -5 26 -16 26 -10 0 -14 -7 -12
-22z"/>
<path d="M2100 1760 c0 -5 7 -10 15 -10 8 0 15 5 15 10 0 6 -7 10 -15 10 -8 0
-15 -4 -15 -10z"/>
<path d="M1365 1592 c-4 -24 -19 -60 -33 -80 l-24 -37 25 23 c32 31 50 72 45
108 -4 26 -5 24 -13 -14z"/>
<path d="M1006 1533 c-10 -49 -20 -99 -22 -113 -4 -18 -3 -21 4 -10 12 19 46
199 40 206 -3 2 -13 -35 -22 -83z"/>
<path d="M1057 1328 c11 -13 47 -64 81 -113 34 -50 74 -102 89 -115 16 -15 10
-5 -14 25 -23 28 -60 82 -83 120 -47 79 -68 105 -83 105 -6 0 -1 -10 10 -22z"/>
<path d="M951 1250 c-13 -61 -14 -96 -2 -65 10 25 24 115 17 115 -2 0 -9 -23
-15 -50z"/>
<path d="M1936 1517 c-10 -43 -16 -81 -13 -83 7 -7 40 133 35 148 -3 7 -13
-22 -22 -65z"/>
<path d="M2021 1339 c-13 -63 -26 -121 -28 -129 -4 -13 -3 -13 5 0 14 21 55
204 50 225 -1 10 -14 -33 -27 -96z"/>
<path d="M1880 1273 c-13 -54 -25 -105 -28 -113 -3 -10 -2 -12 5 -5 12 12 57
204 50 211 -3 3 -15 -39 -27 -93z"/>
<path d="M2198 1555 c-6 -30 -3 -43 8 -33 3 4 4 19 2 35 l-3 28 -7 -30z"/>
<path d="M2300 1508 c0 -19 2 -20 10 -8 13 19 13 30 0 30 -5 0 -10 -10 -10
-22z"/>
<path d="M2176 1439 c-14 -42 -36 -143 -31 -147 6 -6 10 6 30 87 9 35 14 66
11 69 -3 2 -8 -1 -10 -9z"/>
<path d="M1558 1524 c-5 -4 -8 -16 -8 -28 0 -14 3 -17 11 -9 6 6 9 19 7 28 -1
9 -6 13 -10 9z"/>
<path d="M1790 1443 c0 -47 -68 -293 -88 -318 -12 -16 -20 -30 -17 -33 3 -3 6
-3 8 -1 1 2 12 18 25 36 25 37 95 320 81 329 -5 3 -9 -3 -9 -13z"/>
<path d="M1693 1402 c-12 -8 -46 -132 -38 -140 12 -12 35 12 44 46 27 97 25
114 -6 94z"/>
<path d="M1638 1320 c-8 -38 -11 -70 -6 -70 4 0 8 6 8 13 1 6 7 38 14 70 8 31
11 57 7 57 -4 0 -14 -31 -23 -70z"/>
<path d="M1550 1133 c0 -15 -18 -104 -40 -198 -21 -93 -37 -171 -35 -174 6 -6
9 5 48 174 49 210 50 212 38 220 -7 4 -11 -5 -11 -22z"/>
<path d="M1355 865 c-9 -44 -19 -83 -21 -87 -3 -4 6 -12 18 -18 18 -8 20 -8 7
1 -15 11 -15 18 3 87 10 41 17 79 15 86 -2 6 -12 -25 -22 -69z"/>
<path d="M1376 853 c-11 -52 -12 -69 -3 -75 21 -13 24 -9 40 54 11 45 13 66 5
75 -19 23 -26 14 -42 -54z"/>
<path d="M1523 1414 c4 -6 -3 -49 -14 -94 -11 -46 -18 -91 -16 -100 2 -8 14
29 27 83 18 80 20 100 10 110 -8 7 -10 7 -7 1z"/>
<path d="M1382 1332 c-6 -37 -14 -83 -18 -102 -4 -19 -4 -32 0 -28 13 11 46
182 38 190 -4 4 -13 -22 -20 -60z"/>
<path d="M1247 1291 c-3 -16 -9 -42 -13 -57 -4 -16 -4 -26 0 -23 11 11 35 109
26 109 -4 0 -10 -13 -13 -29z"/>
<path d="M2222 1170 c-19 -18 -31 -60 -17 -60 18 0 55 26 55 39 0 34 -15 42
-38 21z"/>
<path d="M2176 1134 c-4 -14 -5 -29 -2 -31 3 -3 8 7 12 21 3 15 4 29 1 32 -2
3 -8 -7 -11 -22z"/>
<path d="M2200 1065 c0 -5 9 -25 20 -43 19 -30 19 -35 5 -69 -21 -49 -13 -53
9 -4 10 21 15 47 12 57 -8 24 -45 72 -46 59z"/>
<path d="M2107 972 l-28 -29 40 -10 c55 -14 68 4 33 46 l-17 22 -28 -29z"/>
<path d="M1983 913 c9 -2 23 -2 30 0 6 3 -1 5 -18 5 -16 0 -22 -2 -12 -5z"/>
<path d="M989 1113 c9 -19 41 -48 76 -73 11 -8 -2 9 -30 38 -53 56 -61 62 -46
35z"/>
<path d="M1132 956 c-7 -27 -11 -50 -8 -53 7 -7 28 65 24 84 -2 10 -9 -4 -16
-31z"/>
<path d="M1020 743 c59 -52 122 -93 140 -93 8 1 -1 9 -21 20 -19 10 -58 39
-86 64 -28 25 -57 46 -64 46 -7 0 7 -17 31 -37z"/>
<path d="M1188 643 c7 -3 16 -2 19 1 4 3 -2 6 -13 5 -11 0 -14 -3 -6 -6z"/>
<path d="M2034 1067 l0 -62 13 44 c9 30 9 49 2 62 -5 11 -11 19 -12 19 -1 0
-2 -28 -3 -63z"/>
<path d="M1891 974 c-20 -75 -32 -137 -27 -141 5 -5 11 12 31 101 16 73 13
105 -4 40z"/>
<path d="M1774 1018 c-1 -13 -4 -43 -8 -68 -4 -32 -4 -39 3 -24 14 32 25 114
15 114 -5 0 -9 -10 -10 -22z"/>
<path d="M1672 978 c-12 -12 -17 -48 -6 -48 18 0 44 24 44 40 0 22 -20 26 -38
8z"/>
<path d="M1641 963 c0 -6 -4 -20 -7 -30 -5 -14 -4 -15 5 -7 7 7 11 20 8 30 -3
11 -5 14 -6 7z"/>
<path d="M1616 854 c-4 -14 -5 -29 -2 -31 3 -3 8 7 12 21 3 15 4 29 1 32 -2 3
-8 -7 -11 -22z"/>
<path d="M1733 838 c-19 -24 -24 -38 -15 -38 5 0 14 11 20 25 13 27 10 32 -5
13z"/>
<path d="M1237 892 c2 -10 -3 -46 -11 -79 -9 -34 -15 -69 -15 -79 2 -25 37
114 38 149 1 15 -3 27 -8 27 -5 0 -7 -8 -4 -18z"/>
<path d="M1494 535 c-155 -79 -271 -165 -221 -165 7 0 22 9 31 19 26 29 150
110 241 158 117 62 77 52 -51 -12z"/>
<path d="M1480 480 c-36 -22 -83 -55 -104 -73 l-40 -34 38 -52 c21 -29 66 -74
100 -102 l61 -49 8 52 c4 29 6 108 5 175 l-3 123 -65 -40z"/>
<path d="M1120 205 c-7 -9 -11 -17 -9 -20 3 -2 10 5 17 15 14 24 10 26 -8 5z"/>
<path d="M1183 206 c18 -19 23 -51 8 -60 -10 -7 -24 22 -16 34 3 5 1 11 -4 14
-10 7 -8 -35 3 -52 5 -8 -1 -12 -18 -12 -14 0 -30 8 -35 18 -6 9 -11 12 -11 7
0 -18 22 -35 45 -35 35 0 61 35 49 67 -5 14 -16 29 -24 31 -11 4 -10 1 3 -12z"/>
<path d="M1142 170 c0 -19 2 -27 5 -17 2 9 2 25 0 35 -3 9 -5 1 -5 -18z"/>
</g>
</svg>
